<svg width="667" height="330" viewBox="0 0 667 330" fill="none" xmlns="http://www.w3.org/2000/svg">
<rect width="667" height="330" fill="#E5E5E5"/>
<rect width="667" height="330" fill="black"/>
<path d="M387.565 157.458L402.241 201.304H420.938V199.093H416.113L371.884 67.3702H357.207L364.445 89.2933L339.918 190.803C338.51 195.593 333.685 199.093 328.056 199.093H327.252V201.304H350.573V199.093H340.521L350.573 157.458H387.565ZM351.176 155.063L366.053 93.7147L386.761 155.063H351.176Z" fill="white"/>
<path d="M123.259 199.093H118.836V201.304H146.982V199.093H146.178C134.718 198.356 125.873 189.697 125.873 179.196V76.3973L167.891 201.304H182.567L176.134 182.328L211.919 76.3973V199.093H207.496V201.304H230.818V199.093H226.395V69.7651H230.818V67.3702H212.12L174.726 178.459L137.332 67.3702H118.836V69.7651H123.259V199.093ZM298.354 157.458L313.031 201.304H331.728V199.093H326.903L282.673 67.3702H267.997L275.234 89.2933L250.707 190.803C249.3 195.593 244.475 199.093 238.845 199.093H238.041V201.304H261.362V199.093H251.31L261.362 157.458H298.354ZM261.965 155.063L276.843 93.7147L297.55 155.063H261.965Z" fill="white"/>
<path d="M490.768 199.093V201.304H514.089V199.093H509.666V135.534H555.102V199.093H550.478V201.304H574V199.093H569.577V69.7651H574V67.3702H550.478V69.7651H555.102V133.139H509.666V69.7651H514.089V67.3702H490.768V69.7651H495.191V199.093H490.768Z" fill="white"/>
<path d="M441.291 68.3497C440.031 68.9496 438.52 70.1496 437.816 71.1189C435.095 74.9032 435.145 73.3342 435.145 139.7V201.221H437.665H440.182V138.547V75.9186L441.391 73.5648C442.953 70.5189 444.514 69.4575 448.592 68.719C451.614 68.1651 451.815 68.0266 450.505 67.796C447.181 67.1497 443.506 67.3806 441.291 68.3497Z" fill="white"/>
<path d="M447.989 70.7959C446.025 71.5804 444.514 73.1497 443.355 75.4571C442.5 77.211 442.447 80.3954 442.296 128.763C442.246 161.254 442.346 180.037 442.651 179.76C442.902 179.483 443.857 177.638 444.715 175.607C446.628 171.13 448.14 169.238 451.212 167.484C454.034 165.822 461.988 163.423 470.151 161.761C473.475 161.069 476.242 160.469 476.293 160.423C476.343 160.377 474.932 156.223 473.17 151.146C464.357 125.717 457.207 101.487 454.084 86.395C453.427 83.2567 453.427 83.0261 454.235 83.3492C457.81 84.8721 462.293 81.8262 462.746 77.5801C463.248 72.5494 460.226 70.1495 453.276 70.1959C451.212 70.1959 448.843 70.4729 447.989 70.7959Z" fill="white"/>
</svg>
