<svg width="2191" height="864" viewBox="0 0 2191 864" fill="none" xmlns="http://www.w3.org/2000/svg">
<path d="M1223 498.2L1266.8 641H1322.6V633.8H1308.2L1176.2 204.8H1132.4L1154 276.2L1080.8 606.8C1076.6 622.4 1062.2 633.8 1045.4 633.8H1043V641H1112.6V633.8H1082.6L1112.6 498.2H1223ZM1114.4 490.4L1158.8 290.6L1220.6 490.4H1114.4Z" fill="black"/>
<path d="M434.2 633.8H421V641H505V633.8H502.6C468.4 631.4 442 603.2 442 569V234.2L567.4 641H611.2L592 579.2L698.8 234.2V633.8H685.6V641H755.2V633.8H742V212.6H755.2V204.8H699.4L587.8 566.6L476.2 204.8H421V212.6H434.2V633.8ZM956.758 498.2L1000.56 641H1056.36V633.8H1041.96L909.958 204.8H866.158L887.758 276.2L814.558 606.8C810.358 622.4 795.958 633.8 779.158 633.8H776.758V641H846.358V633.8H816.358L846.358 498.2H956.758ZM848.158 490.4L892.558 290.6L954.358 490.4H848.158Z" fill="black"/>
<path d="M1520 633.8V641H1589.6V633.8H1576.4V426.8H1712V633.8H1698.2V641H1768.4V633.8H1755.2V212.6H1768.4V204.8H1698.2V212.6H1712V419H1576.4V212.6H1589.6V204.8H1520V212.6H1533.2V633.8H1520Z" fill="black"/>
<path d="M1374.52 207.992C1372.57 209.947 1370.23 213.858 1369.14 217.016C1364.92 229.349 1365 224.235 1365 440.514V641H1368.9H1372.81V436.754V232.658L1374.68 224.988C1377.1 215.061 1379.52 211.602 1385.84 209.195C1390.53 207.39 1390.84 206.939 1388.81 206.187C1383.66 204.082 1377.96 204.834 1374.52 207.992Z" fill="black"/>
<path d="M1401.02 215.957C1395.16 218.512 1390.65 223.623 1387.19 231.138C1384.64 236.85 1384.49 247.221 1384.04 404.745C1383.89 510.563 1384.19 571.739 1385.09 570.837C1385.84 569.935 1388.7 563.923 1391.25 557.309C1396.96 542.729 1401.47 536.566 1410.64 530.855C1419.06 525.443 1442.81 517.627 1467.16 512.216C1477.08 509.962 1485.35 508.008 1485.5 507.857C1485.65 507.707 1481.44 494.179 1476.18 477.645C1449.87 394.825 1428.53 315.912 1419.21 266.761C1417.26 256.54 1417.26 255.789 1419.66 256.841C1430.33 261.801 1443.71 251.881 1445.06 238.052C1446.57 221.668 1437.55 213.852 1416.8 214.003C1410.64 214.003 1403.58 214.905 1401.02 215.957Z" fill="black"/>
</svg>