<svg width="1015" height="502" viewBox="0 0 1015 502" fill="none" xmlns="http://www.w3.org/2000/svg">
<rect width="1015" height="502" fill="#E5E5E5"/>
<rect width="1015" height="502" fill="black"/>
<path d="M589.744 239.526L612.07 306.226H640.512V302.863H633.172L565.89 102.484H543.564L554.574 135.834L517.263 290.251C515.122 297.538 507.782 302.863 499.218 302.863H497.995V306.226H533.472V302.863H518.18L533.472 239.526H589.744ZM534.389 235.883L557.021 142.56L588.521 235.883H534.389Z" fill="white"/>
<path d="M187.679 302.863H180.951V306.226H223.767V302.863H222.544C205.111 301.742 191.655 288.57 191.655 272.596V116.217L255.573 306.226H277.899L268.112 277.36L322.55 116.217V302.863H315.822V306.226H351.298V302.863H344.57V106.128H351.298V102.484H322.856L265.971 271.475L209.087 102.484H180.951V106.128H187.679V302.863ZM454.036 239.526L476.363 306.226H504.805V302.863H497.465L430.181 102.484H407.856L418.865 135.834L381.554 290.251C379.413 297.538 372.073 302.863 363.51 302.863H362.287V306.226H397.763V302.863H382.472L397.763 239.526H454.036ZM398.681 235.883L421.312 142.56L452.813 235.883H398.681Z" fill="white"/>
<path d="M746.738 302.863V306.226H782.214V302.863H775.486V206.177H844.603V302.863H837.569V306.226H873.352V302.863H866.623V106.128H873.352V102.484H837.569V106.128H844.603V202.533H775.486V106.128H782.214V102.484H746.738V106.128H753.466V302.863H746.738Z" fill="white"/>
<path d="M671.473 103.974C669.556 104.887 667.257 106.712 666.187 108.187C662.048 113.944 662.124 111.557 662.124 212.514V306.1H665.957H669.785V210.759V115.488L671.625 111.908C674.001 107.274 676.376 105.66 682.579 104.536C687.177 103.694 687.483 103.483 685.49 103.132C680.433 102.149 674.842 102.5 671.473 103.974Z" fill="white"/>
<path d="M681.662 107.696C678.675 108.889 676.376 111.276 674.612 114.786C673.313 117.454 673.231 122.298 673.002 195.875C672.925 245.301 673.078 273.875 673.542 273.454C673.924 273.032 675.377 270.224 676.682 267.135C679.592 260.325 681.891 257.446 686.565 254.779C690.857 252.251 702.958 248.6 715.375 246.073C720.431 245.02 724.641 244.107 724.718 244.037C724.794 243.967 722.648 237.648 719.967 229.925C706.562 191.242 695.684 154.383 690.934 131.425C689.935 126.651 689.935 126.3 691.163 126.792C696.602 129.108 703.422 124.475 704.11 118.016C704.874 110.363 700.277 106.712 689.705 106.783C686.565 106.783 682.962 107.204 681.662 107.696Z" fill="white"/>
</svg>
