<svg width="1015" height="502" viewBox="0 0 1015 502" fill="none" xmlns="http://www.w3.org/2000/svg">
<rect width="1015" height="502" fill="#E5E5E5"/>
<rect width="1015" height="502" fill="black"/>
<path d="M567.38 233.979L587.951 301.045H614.157V297.663H607.394L545.401 96.184H524.83L534.974 129.717L500.596 284.983C498.624 292.309 491.861 297.663 483.971 297.663H482.843V301.045H515.531V297.663H501.442L515.531 233.979H567.38ZM516.376 230.316L537.229 136.48L566.253 230.316H516.376Z" fill="white"/>
<path d="M196.921 297.663H190.722V301.045H230.173V297.663H229.045C212.983 296.536 200.585 283.292 200.585 267.23V109.992L259.479 301.045H280.049L271.032 272.02L321.19 109.992V297.663H314.991V301.045H347.679V297.663H341.479V99.8473H347.679V96.184H321.472L269.059 266.103L216.647 96.184H190.722V99.8473H196.921V297.663ZM442.34 233.979L462.912 301.045H489.118V297.663H482.355L420.36 96.184H399.79L409.934 129.717L375.556 284.983C373.583 292.309 366.821 297.663 358.93 297.663H357.803V301.045H390.491V297.663H376.401L390.491 233.979H442.34ZM391.336 230.316L412.189 136.48L441.213 230.316H391.336Z" fill="white"/>
<path d="M706.866 297.663V301.045H739.553V297.663H733.354V200.446H797.038V297.663H790.557V301.045H823.526V297.663H817.327V99.8473H823.526V96.184H790.557V99.8473H797.038V196.783H733.354V99.8473H739.553V96.184H706.866V99.8473H713.065V297.663H706.866Z" fill="white"/>
<path d="M638.541 97.6831C637.625 98.6013 636.527 100.438 636.015 101.921C634.033 107.713 634.07 105.312 634.07 206.887V301.045H635.902H637.738V205.121V109.267L638.616 105.665C639.753 101.003 640.89 99.3786 643.858 98.2481C646.06 97.4004 646.206 97.1886 645.253 96.8354C642.834 95.8468 640.157 96.2 638.541 97.6831Z" fill="white"/>
<path d="M650.987 101.424C648.235 102.624 646.117 105.024 644.492 108.554C643.294 111.236 643.224 116.107 643.012 190.088C642.942 239.785 643.083 268.516 643.506 268.093C643.858 267.669 645.201 264.846 646.399 261.739C649.08 254.892 651.198 251.997 655.505 249.315C659.46 246.774 670.614 243.103 682.05 240.562C686.709 239.503 690.593 238.585 690.663 238.514C690.733 238.444 688.756 232.09 686.286 224.325C673.929 185.429 663.907 148.368 659.53 125.284C658.614 120.484 658.614 120.131 659.741 120.625C664.752 122.954 671.036 118.296 671.67 111.801C672.38 104.106 668.143 100.435 658.398 100.506C655.505 100.506 652.189 100.93 650.987 101.424Z" fill="white"/>
</svg>
