<svg width="647" height="217" viewBox="0 0 647 217" fill="none" xmlns="http://www.w3.org/2000/svg">
<path d="M383.38 143.979L403.951 211.045H430.157V207.663H423.394L361.401 6.18399H340.83L350.974 39.717L316.596 194.983C314.624 202.309 307.861 207.663 299.971 207.663H298.843V211.045H331.531V207.663H317.442L331.531 143.979H383.38ZM332.376 140.316L353.229 46.48L382.253 140.316H332.376Z" fill="white"/>
<path d="M12.921 207.663H6.72198V211.045H46.173V207.663H45.045C28.983 206.536 16.585 193.292 16.585 177.23V19.992L75.479 211.045H96.049L87.032 182.02L137.19 19.992V207.663H130.991V211.045H163.679V207.663H157.479V9.84729H163.679V6.18399H137.472L85.059 176.103L32.647 6.18399H6.72198V9.84729H12.921V207.663ZM258.34 143.979L278.912 211.045H305.118V207.663H298.355L236.36 6.18399H215.79L225.934 39.717L191.556 194.983C189.583 202.309 182.821 207.663 174.93 207.663H173.803V211.045H206.491V207.663H192.401L206.491 143.979H258.34ZM207.336 140.316L228.189 46.48L257.213 140.316H207.336Z" fill="white"/>
<path d="M522.866 207.663V211.045H555.553V207.663H549.354V110.446H613.038V207.663H606.557V211.045H639.526V207.663H633.327V9.84729H639.526V6.18399H606.557V9.84729H613.038V106.783H549.354V9.84729H555.553V6.18399H522.866V9.84729H529.065V207.663H522.866Z" fill="white"/>
<path d="M454.541 7.68311C453.625 8.60131 452.527 10.438 452.015 11.921C450.033 17.713 450.07 15.312 450.07 116.887V211.045H451.902H453.738V115.121V19.267L454.616 15.665C455.753 11.003 456.89 9.37861 459.858 8.24811C462.06 7.40041 462.206 7.18861 461.253 6.83541C458.834 5.84681 456.157 6.20001 454.541 7.68311Z" fill="white"/>
<path d="M466.987 11.424C464.235 12.624 462.117 15.024 460.492 18.554C459.294 21.236 459.224 26.107 459.012 100.088C458.942 149.785 459.083 178.516 459.506 178.093C459.858 177.669 461.201 174.846 462.399 171.739C465.08 164.892 467.198 161.997 471.505 159.315C475.46 156.774 486.614 153.103 498.05 150.562C502.709 149.503 506.593 148.585 506.663 148.514C506.733 148.444 504.756 142.09 502.286 134.325C489.929 95.429 479.907 58.368 475.53 35.284C474.614 30.484 474.614 30.131 475.741 30.625C480.752 32.954 487.036 28.296 487.67 21.801C488.38 14.106 484.143 10.435 474.398 10.506C471.505 10.506 468.189 10.93 466.987 11.424Z" fill="white"/>
</svg>
